<svg width="24" height="24" viewBox="0 0 24 24" fill="none" xmlns="http://www.w3.org/2000/svg">
<g clip-path="url(#clip0_1_58250)">
<path d="M1.24193 24.0001C0.925792 24.0001 0.609653 23.8798 0.369459 23.6378C-0.112736 23.1556 -0.112736 22.3739 0.369459 21.8917L21.8995 0.361646C22.3817 -0.120549 23.1634 -0.120549 23.6456 0.361646C24.1278 0.843842 24.1278 1.6256 23.6456 2.1081L2.11591 23.6378C1.87391 23.8783 1.55777 24.0001 1.24193 24.0001Z" fill="white"/>
<path d="M22.7735 24.0001C22.4573 24.0001 22.1415 23.8798 21.901 23.6378L0.369459 2.1081C-0.112736 1.6256 -0.112736 0.843842 0.369459 0.361646C0.851654 -0.120549 1.63341 -0.120549 2.11591 0.361646L23.6456 21.8917C24.1278 22.3739 24.1278 23.1556 23.6456 23.6378C23.4036 23.8783 23.0878 24.0001 22.7735 24.0001Z" fill="white"/>
</g>
<defs>
<clipPath id="clip0_1_58250">
<rect width="24" height="24" fill="white"/>
</clipPath>
</defs>
</svg>
